<svg width="256" height="56" fill="none" xmlns="http://www.w3.org/2000/svg">
  <path d="M2.08 12.75L23.36 1.08a4 4 0 013.91.03L48 12.96a4 4 0 012 3.47v23.54a4 4 0 01-2.06 3.5l-20.7 11.47a4 4 0 01-3.84.02L2.1 43.46A4 4 0 010 39.94V16.26a4 4 0 012.08-3.5v-.01z" fill="#386CF8"/>
  <path fill-rule="evenodd" clip-rule="evenodd" d="M16.041 17.337c3.513.468 7.916 2.015 12.354 4.556 4.437 2.54 8.008 5.56 10.203 8.36 1.098 1.402 1.828 2.718 2.166 3.865.338 1.145.27 2.055-.118 2.742-.388.686-1.13 1.21-2.28 1.503-1.152.293-2.649.334-4.407.1-3.513-.468-7.916-2.015-12.354-4.556-4.437-2.54-8.008-5.56-10.203-8.36-1.099-1.402-1.828-2.718-2.166-3.865-.338-1.144-.27-2.055.117-2.742.389-.686 1.132-1.21 2.281-1.503 1.152-.293 2.649-.334 4.407-.1zm-4.778-1.357c-1.4.356-2.56 1.063-3.211 2.215-.651 1.152-.662 2.516-.25 3.91.41 1.391 1.256 2.877 2.425 4.37 2.342 2.987 6.077 6.125 10.64 8.738 4.564 2.613 9.151 4.242 12.9 4.74 1.871.25 3.573.223 4.97-.133 1.4-.356 2.56-1.063 3.211-2.215.651-1.152.662-2.516.25-3.91-.41-1.391-1.256-2.877-2.426-4.37-2.341-2.987-6.076-6.125-10.64-8.738-4.563-2.613-9.15-4.241-12.899-4.74-1.872-.25-3.573-.223-4.97.133z" fill="#fff"/>
  <path fill-rule="evenodd" clip-rule="evenodd" d="M16.041 38.363c3.513-.468 7.916-2.015 12.354-4.556 4.437-2.54 8.008-5.56 10.203-8.36 1.098-1.402 1.828-2.718 2.166-3.865.338-1.145.27-2.055-.118-2.742-.388-.686-1.13-1.21-2.28-1.503-1.152-.293-2.649-.334-4.407-.1-3.513.468-7.916 2.015-12.354 4.556-4.437 2.54-8.008 5.56-10.203 8.36-1.099 1.402-1.828 2.718-2.166 3.865-.338 1.145-.27 2.055.117 2.742.389.686 1.132 1.21 2.281 1.503 1.152.293 2.649.334 4.407.1zm-4.778 1.357c-1.4-.356-2.56-1.063-3.211-2.215-.651-1.153-.662-2.516-.25-3.91.41-1.391 1.256-2.877 2.425-4.37 2.342-2.988 6.077-6.125 10.64-8.738 4.564-2.613 9.151-4.241 12.9-4.74 1.871-.25 3.573-.223 4.97.133 1.4.356 2.56 1.062 3.211 2.215.651 1.152.662 2.516.25 3.91-.41 1.391-1.256 2.877-2.426 4.37-2.341 2.987-6.076 6.125-10.64 8.738-4.563 2.613-9.15 4.241-12.899 4.74-1.872.25-3.573.223-4.97-.133z" fill="#fff"/>
  <path fill-rule="evenodd" clip-rule="evenodd" d="M29.755 40.913c1.334-3.306 2.175-7.924 2.175-13.063 0-5.14-.841-9.757-2.175-13.063-.667-1.654-1.443-2.943-2.266-3.807-.821-.861-1.639-1.25-2.42-1.25-.78 0-1.597.389-2.418 1.25-.823.864-1.6 2.153-2.267 3.807-1.333 3.306-2.174 7.924-2.174 13.063 0 5.14.841 9.757 2.174 13.063.668 1.654 1.444 2.943 2.267 3.806.82.862 1.639 1.251 2.419 1.251s1.598-.39 2.42-1.25c.822-.864 1.598-2.153 2.265-3.807zm-1.18 4.842c-1 1.048-2.184 1.715-3.505 1.715-1.321 0-2.506-.667-3.505-1.715-.998-1.047-1.862-2.521-2.572-4.281-1.421-3.525-2.283-8.342-2.283-13.624 0-5.283.862-10.1 2.283-13.624.71-1.76 1.574-3.234 2.572-4.28 1-1.049 2.184-1.716 3.505-1.716 1.321 0 2.505.667 3.505 1.715.998 1.047 1.862 2.521 2.572 4.281 1.42 3.524 2.283 8.341 2.283 13.624 0 5.282-.862 10.1-2.283 13.624-.71 1.76-1.574 3.234-2.572 4.28z" fill="#fff"/>
  <path d="M28.04 27.72A3.05 3.05 0 0025 24.66a3.05 3.05 0 00-3.04 3.06A3.05 3.05 0 0025 30.78a3.05 3.05 0 003.04-3.06z" fill="#fff"/>
  <path d="M74.06 18.4c2.8 0 4.93.51 6.4 1.54 1.5 1.03 2.25 2.6 2.25 4.7 0 2.64-1.3 4.42-3.9 5.35a41.653 41.653 0 013.92 5.8c.44.74.82 1.48 1.16 2.21h-3.95a40.44 40.44 0 00-2.4-4c-.42-.66-.83-1.26-1.24-1.82-.41-.58-.8-1.1-1.15-1.54l-.67.02h-2.24V38H68.7V18.88c.86-.2 1.77-.31 2.74-.37.865-.07 1.732-.106 2.6-.11h.02zm.25 3.05c-.75 0-1.44.03-2.07.09v6.27h1.54c.86 0 1.61-.05 2.27-.14.65-.1 1.19-.26 1.62-.5.45-.25.78-.58 1-.99.23-.4.34-.93.34-1.56 0-.6-.1-1.1-.33-1.52a2.471 2.471 0 00-.98-.98c-.41-.24-.9-.4-1.49-.5-.58-.11-1.21-.17-1.9-.17zm10.07 9.3c0-1.29.19-2.42.56-3.39.4-.97.9-1.77 1.54-2.4a6.6 6.6 0 014.7-1.96c2.02 0 3.59.62 4.7 1.87 1.15 1.25 1.72 3.12 1.72 5.6l-.03.64c0 .23-.01.43-.03.62h-9.66c.1 1.17.5 2.09 1.23 2.74.75.64 1.82.95 3.22.95a10.348 10.348 0 003.87-.7l.44 2.78a6.26 6.26 0 01-1.9.56c-.929.207-1.878.307-2.83.3-1.29 0-2.4-.18-3.36-.56a6.48 6.48 0 01-2.35-1.6 6.7 6.7 0 01-1.37-2.4 9.966 9.966 0 01-.45-3.05zm9.83-1.51c0-.47-.07-.9-.2-1.32-.13-.43-.33-.8-.59-1.1a2.37 2.37 0 00-.92-.72 2.73 2.73 0 00-1.29-.28 3.11 3.11 0 00-3 2.16c-.14.4-.25.83-.3 1.26h6.3zm10.87 6.38c1.05 0 1.84-.06 2.38-.17V31.7a6.635 6.635 0 00-1.99-.25c-.37 0-.75.03-1.15.08a3.693 3.693 0 00-1.03.31c-.3.15-.54.36-.73.64-.19.27-.28.6-.28 1.01 0 .8.25 1.36.76 1.68a3.998 3.998 0 002.04.45zm-.28-12.63a8.305 8.305 0 012.83.42 4.21 4.21 0 012.8 3.02c.2.72.3 1.5.3 2.36v8.87c-.52.12-1.31.25-2.37.4-1.05.16-2.23.25-3.56.25-.88 0-1.68-.09-2.4-.25a5.198 5.198 0 01-1.88-.82 3.996 3.996 0 01-1.2-1.45 5.198 5.198 0 01-.43-2.21c0-.84.16-1.55.48-2.13.33-.58.78-1.05 1.34-1.4a5.4 5.4 0 011.93-.79 10.55 10.55 0 014.82.06v-.56c0-.4-.05-.77-.14-1.12-.1-.35-.26-.66-.5-.92a2.2 2.2 0 00-.93-.65 3.893 3.893 0 00-1.43-.22c-1.271 0-2.535.188-3.75.56l-.42-2.75a14.7 14.7 0 014.5-.67h.01zm8.01 7.7c0-1.08.17-2.09.5-3.02.312-.91.802-1.75 1.44-2.47.63-.69 1.4-1.23 2.3-1.62.89-.4 1.9-.59 3.02-.59 1.38 0 2.68.25 3.92.76l-.73 2.77a7.6 7.6 0 00-2.92-.59c-1.32 0-2.33.42-3.02 1.26-.69.82-1.03 1.99-1.03 3.5 0 1.46.32 2.62.97 3.47.66.84 1.76 1.26 3.3 1.26a8.695 8.695 0 003.17-.58l.48 2.8c-.38.18-.94.35-1.7.5-.76.15-1.53.22-2.33.22a8.79 8.79 0 01-3.28-.56 6.577 6.577 0 01-2.3-1.6c-.6-.68-1.04-1.5-1.34-2.43-.3-.95-.45-1.98-.45-3.08zm12.6-11.2l3.38-.56v4.43H134v2.82h-5.2v5.97c0 1.17.18 2.01.55 2.52.38.5 1.01.75 1.9.75.62 0 1.16-.06 1.63-.2.49-.12.87-.24 1.15-.36l.56 2.7c-.4.16-.9.33-1.54.5-.64.18-1.38.28-2.24.28a7.199 7.199 0 01-2.63-.42 3.918 3.918 0 01-1.66-1.2 4.94 4.94 0 01-.86-1.94 12.145 12.145 0 01-.26-2.6V19.49h.01zM154.33 38c-.26-.77-.53-1.52-.81-2.27-.28-.74-.56-1.51-.82-2.3h-8.17a86.66 86.66 0 01-.81 2.33l-.79 2.24h-3.67a332.374 332.374 0 013.98-10.72c1.19-2.923 2.45-5.818 3.78-8.68h3.33a144.72 144.72 0 013.75 8.68c.64 1.56 1.28 3.23 1.94 4.98.67 1.75 1.37 3.67 2.1 5.74h-3.81zm-5.71-15.65a119.991 119.991 0 00-3.2 8.23h6.39a187.84 187.84 0 00-3.2-8.23h.01zM162.43 38a88.388 88.388 0 01-5.54-14.64h3.6l.7 2.66.88 2.82c.31.94.63 1.85.95 2.75l.92 2.38a87.693 87.693 0 002.72-7.95c.28-.96.52-1.84.73-2.66h3.5A91.105 91.105 0 01165.35 38h-2.92zm14.88-2.38c1.04 0 1.84-.06 2.38-.17V31.7a6.635 6.635 0 00-1.99-.25c-.37 0-.75.03-1.15.08a3.693 3.693 0 00-1.03.31c-.3.15-.55.36-.73.64-.19.27-.28.6-.28 1.01 0 .8.25 1.36.75 1.68a4 4 0 002.05.45zm-.28-12.63a8.305 8.305 0 012.83.42 4.21 4.21 0 012.8 3.02c.2.72.3 1.5.3 2.36v8.87c-.52.12-1.31.25-2.38.4-1.04.16-2.23.25-3.55.25-.88 0-1.68-.09-2.4-.25a5.198 5.198 0 01-1.88-.82 3.997 3.997 0 01-1.2-1.45 5.196 5.196 0 01-.43-2.21c0-.84.16-1.55.48-2.13.33-.58.78-1.05 1.34-1.4a5.4 5.4 0 011.93-.79 10.55 10.55 0 014.82.06v-.56c0-.4-.05-.77-.14-1.12-.1-.35-.26-.66-.5-.92a2.2 2.2 0 00-.93-.65 3.893 3.893 0 00-1.43-.22c-1.271 0-2.535.188-3.75.56l-.42-2.75a14.7 14.7 0 014.5-.67h.01zm8.82.84a22.643 22.643 0 016.02-.78c1.2 0 2.2.17 3 .5.8.32 1.44.78 1.9 1.37.49.58.82 1.3 1.01 2.13.2.82.31 1.73.31 2.72V38h-3.39v-7.7a9.987 9.987 0 00-.17-1.99c-.09-.56-.26-1-.5-1.34-.22-.36-.54-.6-.95-.76a3.703 3.703 0 00-1.46-.25c-.43 0-.88.03-1.34.08l-1.04.14V38h-3.39V23.83zM207.7 39.1c.6.28 1.01.6 1.24.95.24.36.36.8.36 1.32 0 .65-.28 1.21-.84 1.68-.56.47-1.4.7-2.52.7-.9 0-1.7-.12-2.38-.36l.4-2.02.72.2c.3.07.6.1.92.1.32 0 .56-.05.73-.16a.547.547 0 00.28-.5c0-.3-.13-.53-.4-.68a7.161 7.161 0 00-.77-.33l-.28-.09a9.546 9.546 0 01.7-1.68 7.19 7.19 0 01-2.53-.9 5.862 5.862 0 01-1.76-1.62 7.638 7.638 0 01-1.06-2.26c-.23-.84-.34-1.76-.34-2.75 0-1.08.17-2.09.5-3.02a7.285 7.285 0 011.43-2.47c.64-.69 1.4-1.23 2.3-1.62.9-.4 1.9-.59 3.02-.59 1.38 0 2.7.25 3.92.76l-.73 2.77a7.602 7.602 0 00-2.9-.59c-1.33 0-2.34.42-3.03 1.26-.7.82-1.04 1.99-1.04 3.5 0 1.46.33 2.62.98 3.47.66.84 1.76 1.26 3.3 1.26a8.695 8.695 0 003.17-.58l.48 2.8c-.34.16-.83.31-1.49.44-.65.13-1.33.22-2.04.26-.127.244-.24.494-.34.75zm10.38-3.47c1.05 0 1.84-.06 2.38-.17V31.7a6.635 6.635 0 00-1.99-.25c-.37 0-.75.03-1.14.08-.36.052-.711.156-1.04.31-.3.15-.54.36-.73.64-.19.27-.28.6-.28 1.01 0 .8.25 1.36.76 1.68a3.998 3.998 0 002.04.45v.01zM217.8 23a8.305 8.305 0 012.83.42 4.21 4.21 0 012.8 3.02c.2.72.3 1.5.3 2.36v8.87c-.51.12-1.3.25-2.37.4-1.05.16-2.23.25-3.56.25-.88 0-1.68-.09-2.4-.25a5.198 5.198 0 01-1.88-.82 3.997 3.997 0 01-1.2-1.45 5.196 5.196 0 01-.43-2.21c0-.84.16-1.55.48-2.13.34-.58.78-1.05 1.34-1.4a5.402 5.402 0 011.94-.79c1.587-.35 3.233-.33 4.81.06v-.56c0-.4-.04-.77-.14-1.12-.1-.35-.26-.66-.5-.92-.23-.28-.53-.5-.93-.65a3.89 3.89 0 00-1.42-.22 12.802 12.802 0 00-3.76.56l-.42-2.75a14.7 14.7 0 014.5-.67h.01zm11.49 7.65c0 1.49.35 2.67 1.06 3.52.71.84 1.69 1.26 2.94 1.26.54 0 1-.01 1.37-.05.4-.06.71-.11.95-.17v-8.4c-.3-.2-.7-.4-1.2-.56-.49-.19-1-.28-1.57-.28-1.23 0-2.14.42-2.71 1.26a6.087 6.087 0 00-.84 3.42zm9.71 6.91a20.01 20.01 0 01-5.74.81c-1.16 0-2.2-.17-3.1-.53a6.698 6.698 0 01-2.36-1.51 7.144 7.144 0 01-1.48-2.4 9.534 9.534 0 01-.5-3.2c0-1.16.13-2.2.41-3.14.3-.95.73-1.76 1.3-2.43a5.54 5.54 0 012.04-1.54 6.502 6.502 0 012.77-.56c.7 0 1.33.08 1.88.25.54.17 1 .35 1.4.56v-7.03l3.38-.56v21.28zm16.29-6.89c0 1.16-.17 2.22-.5 3.17a6.385 6.385 0 01-3.67 4c-.86.38-1.81.56-2.86.56-1.04 0-2-.18-2.85-.56-.86-.37-1.6-.9-2.22-1.57a7.366 7.366 0 01-1.45-2.43c-.34-.95-.5-2-.5-3.17 0-1.15.16-2.2.5-3.13a6.422 6.422 0 013.7-3.98c.85-.37 1.8-.56 2.82-.56a7.01 7.01 0 015.07 2.1 7.001 7.001 0 011.43 2.44c.35.93.53 1.98.53 3.13zm-3.47 0c0-1.45-.32-2.6-.95-3.44a3.022 3.022 0 00-2.6-1.29c-1.13 0-2 .43-2.64 1.29a5.706 5.706 0 00-.92 3.44c0 1.48.3 2.65.92 3.5a3.106 3.106 0 002.63 1.3c1.12 0 1.99-.44 2.6-1.3.64-.85.96-2.02.96-3.5z" fill="#000"/>
</svg>
