<svg width="432" height="328" fill="none" xmlns="http://www.w3.org/2000/svg">
  <g clip-path="url(#clip0)">
    <path d="M209.006 289.997c-92.982-7.076-203.868-79.129-198.223-153.319C16.428 62.488 123.823-6.576 216.805.501c92.983 7.076 146.506 145.724 140.861 219.914-5.645 74.19-55.677 76.659-148.66 69.582z" fill="#EAE8E8"/>
    <path d="M216.804 301.913c107.198 0 194.098-5.324 194.098-11.892s-86.9-11.892-194.098-11.892c-107.197 0-194.098 5.324-194.098 11.892s86.901 11.892 194.098 11.892zM81.396 328c44.954 0 81.396-3.177 81.396-7.097 0-3.92-36.442-7.097-81.396-7.097S0 316.983 0 320.903C0 324.823 36.442 328 81.396 328z" fill="#060e28"/>
    <path d="M363.721 62.147H75.259v226.339H363.72V62.147z" fill="#1E3262"/>
    <path d="M82.93 71.354a3.453 3.453 0 100-6.905 3.453 3.453 0 000 6.905zM92.137 71.354a3.453 3.453 0 100-6.905 3.453 3.453 0 000 6.905zM101.343 71.354a3.453 3.453 0 10-.001-6.905 3.453 3.453 0 00.001 6.905z" fill="#386CF8"/>
    <path opacity=".1" d="M363.721 73.656H75.259v1.151H363.72v-1.15z" fill="#142242"/>
    <path d="M432 233.035c0 24.464-14.542 33.006-32.481 33.006s-32.481-8.542-32.481-33.006 32.481-55.587 32.481-55.587S432 208.571 432 233.035z" fill="#D0CDE1"/>
    <path d="M398.336 262.299l.332-20.475 13.844-25.329-13.792 22.118.15-9.207 9.541-18.325-9.502 15.889.269-16.557 10.217-14.59-10.174 11.986.168-30.361-1.056 40.192.086-1.658-10.388-15.901 10.222 19.084-.968 18.492-.029-.491-11.975-16.734L397.22 238.9l-.121 2.313-.022.035.01.19-2.456 46.915h3.281l.394-24.232 11.91-18.424-11.88 16.602z" fill="#3F3D56"/>
    <path d="M184.013 151.725h38.852v3.089h-35.29v23.245h33.185v3.089h-33.185v25.521h35.694v3.089h-39.256v-58.033zm42.332 0h4.128l18.293 25.522 18.697-25.522 25.431-32.417-41.781 60.621 21.53 29.829h-4.29l-19.587-27.147-19.669 27.147h-4.209l21.692-29.829-20.235-28.204zm47.836 3.089v-3.089h44.275v3.089h-20.397v54.944h-3.562v-54.944h-20.316zm-138.773-3.089h4.452l61.387 91.877-25.368-33.844-36.747-53.644-.162 53.644h-3.562v-58.033zm182.689 54.012a1.294 1.294 0 01-.94-2.2 1.3 1.3 0 011.411-.289 1.3 1.3 0 01.802 1.197 1.25 1.25 0 01-.361.917 1.262 1.262 0 01-.912.375zm3.499-3.4h1.906c.026 1.032.78 1.726 1.888 1.726 1.239 0 1.941-.746 1.941-2.143v-8.848h1.94v8.857c0 2.516-1.455 3.964-3.863 3.964-2.261 0-3.812-1.405-3.812-3.556zm10.213-.113h1.923c.165 1.188 1.325 1.943 2.997 1.943 1.559 0 2.703-.807 2.703-1.917 0-.954-.728-1.527-2.382-1.917l-1.612-.391c-2.26-.529-3.291-1.622-3.291-3.461 0-2.23 1.819-3.713 4.547-3.713 2.538 0 4.392 1.483 4.505 3.591h-1.889c-.182-1.153-1.186-1.873-2.642-1.873-1.533 0-2.555.737-2.555 1.865 0 .893.658 1.405 2.287 1.787l1.377.338c2.564.599 3.621 1.64 3.621 3.522 0 2.395-1.854 3.895-4.816 3.895-2.772 0-4.634-1.431-4.773-3.669z" fill="#FAFAFA"/>
    <path d="M46.584 214.83v2.746s-2.957 14.358 1.637 13.73c7.535-1.029 1.966-12.7 1.966-12.7v-2.403l-3.603-1.373zM85.158 292.484l3.118 8.662 7.622-2.772-3.464-7.969-7.276 2.079zM66.17 301.146l-2.11 7.567 8.087 2.407.352-7.91-6.33-2.064z" fill="#FFB8B8"/>
    <path d="M59.15 214.145l-.69 3.805s-.346 2.767 0 4.496c.345 1.73 25.202 73.329 25.202 73.329l10.702-4.15-13.81-45.312-1.726-34.935-19.678 2.767z" fill="#142242"/>
    <path d="M72.795 213.42l-1.379 51.179s-3.102 3.458-2.413 5.879c.69 2.42-1.724 22.477-1.724 22.477l-2.068 10.028 8.963 2.767s1.724-8.991 3.103-10.029c1.38-1.037 9.308-32.159 9.308-34.234 0-2.075 5.861-48.067 5.861-48.067l-14.48-5.878-5.17 5.878z" fill="#142242"/>
    <path d="M88.888 295.7s-3.81-4.146-5.887 0a84.005 84.005 0 01-5.194 8.64s-11.08 6.566 0 8.293c0 0 6.233.346 9.35-1.727 3.116-2.074 11.426-5.184 11.426-5.875 0-.691-2.077-10.851-4.155-9.745-2.078 1.106-5.54.414-5.54.414z" fill="#142242"/>
    <path d="M70.14 307.085s-3.126-4.505-5.905-1.386c-2.779 3.119-6.252 12.13-6.252 12.13s-6.252 9.357 3.473 9.011c9.726-.347 10.42-3.813 10.42-3.813s1.39-9.01 1.39-9.357c0-.347-.694-3.909-.694-3.909l-2.432-2.676z" fill="#142242"/>
    <path d="M67.704 142.325c5.403 0 9.782-4.38 9.782-9.782 0-5.403-4.38-9.783-9.782-9.783s-9.781 4.38-9.781 9.783c0 5.402 4.379 9.782 9.781 9.782z" fill="#FFB8B8"/>
    <path d="M62.526 138.636l1.388 11.012 4.165 10.324 9.023-10.668v-5.162s-2.776-4.13-2.082-7.571l-12.494 2.065z" fill="#FFB8B8"/>
    <path d="M67.604 152.085l-4.859-2.078-5.206 61.283 1.041 3.808s2.777 1.731 11.453.346c8.677-1.385 22.906-.346 22.906-.346l1.041-31.507-17.006-37.046-9.37 5.54z" fill="#D0CDE1"/>
    <path d="M58.902 212.605s6.645-56.964 6.295-58c-.35-1.036-6.295-3.84-6.295-3.84s-10.143 6.602-9.793 9.019c.35 2.416 6.645 53.512 6.645 53.512l3.148-.691zM85.148 208.556s-10.42-40.507-10.767-49.509c-.348-9.001-.348-10.04-.348-10.04s15.978-5.539 21.535 0l1.042 29.082s1.737 12.464 1.042 16.272a42.749 42.749 0 01-2.084 7.27s3.82 3.809.347 4.847c-3.473 1.039-5.904-.692-7.294 1.039-1.389 1.731-3.473 1.039-3.473 1.039z" fill="#386CF8"/>
    <path d="M51.56 157.67s-4.198 0-3.848 4.843c.35 4.843 0 27.328 0 27.328s-3.148 19.027-2.098 20.41c1.049 1.384-.35 5.881-.35 5.881l6.295 1.384s.7-4.843 2.099-5.189c1.399-.346 3.497-10.378 3.497-10.378L51.56 157.67z" fill="#386CF8"/>
    <path d="M98.373 200.253l-1.591 2.89s-10.914 8.684-5.528 11.899c5.386 3.214 10.584-8.557 10.584-8.557l1.732-3.116-5.197-3.116z" fill="#FFB8B8"/>
    <path d="M90.912 148.463l4.809.688s5.496 3.785 5.84 5.85c.343 2.065 11.336 20.99 11.336 20.99a11.212 11.212 0 011.03 4.474c0 2.408-3.778 20.646-5.84 20.99-2.061.344-3.435 3.785-3.435 3.785l-7.214-4.474c.023-1.04.138-2.076.344-3.096.344-1.721 1.718-5.162 1.718-5.162l2.061-7.226a2.575 2.575 0 01-1.031-2.065c0-1.376-5.84-8.602-5.84-8.602l-3.778-26.152z" fill="#386CF8"/>
    <path d="M66.454 155.752s-8.79-2.508-8.11-4.248c.679-1.74 1.358-2.088 1.358-2.088s1.019-2.784 2.037-2.784c1.02 0 1.891-.854 1.891-.854l3.882 6.422-1.058 3.552zM76.15 142.272s3.449-.846 4.83.169c1.382 1.015 2.417 1.015 2.763 1.692.345.677 4.834 1.354 3.453 2.369-1.381 1.015-19.683 5.414-19.683 5.414l8.633-6.091.005-3.553z" fill="#D0CDE1"/>
    <path d="M77.37 122.184a11.883 11.883 0 00-6.761-5.162l-2.068 1.652.804-1.927a10.998 10.998 0 00-2.043-.118l-1.86 2.388.77-2.306a11.767 11.767 0 00-8.121 4.824c-2.367 3.409-2.209 8.148.12 11.583.638-1.961.856-3.8 1.495-5.761a5.86 5.86 0 001.515.007l.777-1.812.218 1.735c2.41-.209 5.985-.67 8.27-1.092l-.223-1.331 1.33 1.106c.7-.161 1.115-.307 1.08-.418 1.7 2.736 3.384 4.483 5.083 7.219.645-3.859 1.784-7.067-.386-10.587z" fill="#2F2E41"/>
    <path d="M76.719 132.351c.423 0 .767-.601.767-1.343 0-.741-.344-1.342-.767-1.342-.424 0-.768.601-.768 1.342 0 .742.344 1.343.768 1.343z" fill="#FFB8B8"/>
    <path d="M182.207 92.454h-20.714v4.987h20.714v-4.987zM154.972 92.454h-19.564v4.987h19.564v-4.987zM189.879 243.602h-39.894v4.987h39.894v-4.987zM253.939 92.454h-7.289v4.987h7.289v-4.987zM253.939 243.602h-7.289v4.987h7.289v-4.987zM142.697 243.602h-7.289v4.987h7.289v-4.987zM268.515 92.454h-7.288v4.987h7.288v-4.987zM284.242 243.602h-23.015v4.987h23.015v-4.987zM238.978 92.454h-49.483v4.987h49.483v-4.987zM238.978 243.602h-22.632v4.987h22.632v-4.987zM156.122 124.678h-20.714v4.988h20.714v-4.988zM156.122 232.861h-20.714v4.987h20.714v-4.987zM177.987 232.861h-16.494v4.987h16.494v-4.987zM227.854 124.678h-7.288v4.988h7.288v-4.988zM269.666 232.861h-7.288v4.987h7.288v-4.987zM242.431 124.678h-7.288v4.988h7.288v-4.988zM284.242 232.861h-7.288v4.987h7.288v-4.987zM212.894 124.678h-49.483v4.988h49.483v-4.988zM254.706 232.861h-43.73v4.987h43.73v-4.987zM241.664 103.579H220.95v4.987h20.714v-4.987zM241.664 254.727H220.95v4.988h20.714v-4.988zM269.666 103.579h-20.714v4.987h20.714v-4.987zM269.666 254.727h-20.714v4.988h20.714v-4.988zM284.242 103.579h-7.288v4.987h7.288v-4.987zM284.242 254.727h-7.288v4.988h7.288v-4.988zM142.697 103.579h-7.289v4.987h7.289v-4.987zM142.697 254.727h-7.289v4.988h7.289v-4.988zM157.273 103.579h-7.288v4.987h7.288v-4.987zM157.273 254.727h-7.288v4.988h7.288v-4.988zM214.045 103.579h-49.483v4.987h49.483v-4.987zM214.045 254.727h-49.483v4.988h49.483v-4.988zM177.987 119.308h20.714v-4.988h-20.714v4.988zM177.987 270.456h20.714v-4.987h-20.714v4.987zM149.985 119.308h20.714v-4.988h-20.714v4.988zM149.985 270.456h20.714v-4.987h-20.714v4.987zM135.408 119.308h7.289v-4.988h-7.289v4.988zM135.408 270.456h7.289v-4.987h-7.289v4.987zM262.378 119.308h7.288v-4.988h-7.288v4.988zM262.378 270.456h7.288v-4.987h-7.288v4.987zM205.606 119.308h49.483v-4.988h-49.483v4.988zM205.606 270.456h49.483v-4.987h-49.483v4.987z" fill="#386CF8"/>
  </g>
  <defs>
    <clipPath id="clip0">
      <path fill="#fff" d="M0 0h432v328H0z"/>
    </clipPath>
  </defs>
</svg>
